<svg xmlns="http://www.w3.org/2000/svg" width="960" height="520">
  <defs>
    <linearGradient id="bg" x1="0%" y1="0%" x2="100%" y2="100%">
      <stop offset="0%" stop-color="#0f172a"/>
      <stop offset="100%" stop-color="#1e293b"/>
    </linearGradient>
  </defs>
  <rect width="960" height="520" fill="url(#bg)"/>
  <text x="40" y="60" fill="#a855f7" font-size="32" font-family="Inter, Arial, sans-serif" font-weight="700">Micro Video Hosting</text>
  <text x="40" y="90" fill="#cbd5e1" font-size="15" font-family="Inter, Arial, sans-serif">SvelteKit + SQLite • загрузка роликов, теги, карточки</text>

  <rect x="40" y="130" width="360" height="330" rx="16" fill="#111827" stroke="#a855f7" stroke-width="2"/>
  <text x="60" y="170" fill="#e5e7eb" font-size="16" font-family="Inter, Arial, sans-serif">Upload form</text>
  <rect x="60" y="190" width="320" height="44" rx="10" fill="#1f2937" stroke="#334155"/>
  <text x="72" y="218" fill="#9ca3af" font-size="12" font-family="Inter, Arial, sans-serif">Title</text>
  <rect x="60" y="240" width="320" height="120" rx="10" fill="#1f2937" stroke="#334155"/>
  <text x="72" y="268" fill="#9ca3af" font-size="12" font-family="Inter, Arial, sans-serif">Description...</text>
  <rect x="60" y="370" width="320" height="42" rx="10" fill="#22c55e"/>
  <text x="180" y="397" fill="#0f172a" font-size="14" font-family="Inter, Arial, sans-serif" font-weight="700">Upload</text>

  <rect x="430" y="130" width="490" height="330" rx="16" fill="#0b1220" stroke="#a855f7" stroke-width="2"/>
  <text x="450" y="170" fill="#e5e7eb" font-size="16" font-family="Inter, Arial, sans-serif">Gallery</text>

  <rect x="450" y="190" width="220" height="120" rx="12" fill="#111827" stroke="#1f2937"/>
  <text x="470" y="214" fill="#e5e7eb" font-size="14" font-family="Inter, Arial, sans-serif">Mars launch stream</text>
  <text x="470" y="236" fill="#9ca3af" font-size="12" font-family="Inter, Arial, sans-serif">Tags: launch, nasa</text>

  <rect x="720" y="190" width="180" height="120" rx="12" fill="#111827" stroke="#1f2937"/>
  <text x="740" y="214" fill="#e5e7eb" font-size="14" font-family="Inter, Arial, sans-serif">Rover drive</text>
  <text x="740" y="236" fill="#9ca3af" font-size="12" font-family="Inter, Arial, sans-serif">Tags: rover</text>

  <rect x="450" y="330" width="450" height="100" rx="12" fill="#111827" stroke="#1f2937"/>
  <text x="470" y="354" fill="#e5e7eb" font-size="14" font-family="Inter, Arial, sans-serif">Filters</text>
  <text x="470" y="376" fill="#9ca3af" font-size="12" font-family="Inter, Arial, sans-serif">Search + tags + pagination</text>

  <text x="40" y="500" fill="#94a3b8" font-size="12" font-family="Inter, Arial, sans-serif">API: /api/add-video, /api/videos, /api/videos/:id, /api/videos-by-tag/:tag/:page/:limit</text>
</svg>
